<svg width="50" height="50" viewBox="0 0 50 50" fill="none" xmlns="http://www.w3.org/2000/svg">
<rect width="50" height="50" rx="25" fill="#4BEE9A" fill-opacity="0.2"/>
<path d="M30.517 18.5172C30.517 21.5643 28.0468 24.0345 24.9997 24.0345C21.9525 24.0345 19.4824 21.5643 19.4824 18.5172C19.4824 15.4701 21.9525 12.9999 24.9997 12.9999C28.0468 12.9999 30.517 15.4701 30.517 18.5172Z" fill="#0C8948"/>
<path d="M32.9308 37C35.2161 37 37.1348 35.0557 36.11 33.013C35.5102 31.8177 34.6406 30.7186 33.5338 29.7825C31.2704 27.8684 28.2006 26.793 24.9997 26.793C21.7987 26.793 18.7289 27.8684 16.4655 29.7825C15.3588 30.7186 14.4891 31.8177 13.8894 33.013C12.8645 35.0557 14.7832 37 17.0685 37L32.9308 37Z" fill="#0C8948"/>
</svg>
