<svg preserveAspectRatio="none" width="100%" height="100%" overflow="visible" style="display: block;" viewBox="0 0 23 23" fill="none" xmlns="http://www.w3.org/2000/svg">
<g id="maki:arrow">
<path id="Vector" d="M12.7159 3.51593C13.0035 3.22848 13.3934 3.06699 13.8 3.06699C14.2066 3.06699 14.5965 3.22848 14.8841 3.51593L21.7841 10.4159C22.0715 10.7035 22.233 11.0934 22.233 11.5C22.233 11.9066 22.0715 12.2965 21.7841 12.5841L14.8841 19.4841C14.5949 19.7634 14.2076 19.9179 13.8055 19.9144C13.4035 19.9109 13.0189 19.7497 12.7346 19.4654C12.4503 19.1811 12.2891 18.7965 12.2856 18.3945C12.2821 17.9924 12.4366 17.6051 12.7159 17.3159L16.8667 13.0333H2.3C1.89333 13.0333 1.50333 12.8718 1.21577 12.5842C0.928214 12.2967 0.766667 11.9067 0.766667 11.5C0.766667 11.0933 0.928214 10.7033 1.21577 10.4158C1.50333 10.1282 1.89333 9.96667 2.3 9.96667H16.8667L12.7159 5.68407C12.4285 5.39652 12.267 5.00659 12.267 4.6C12.267 4.19341 12.4285 3.80348 12.7159 3.51593Z" fill="var(--fill-0, white)"/>
</g>
</svg>
