<svg width="12" height="7" viewBox="0 0 12 7" fill="none" xmlns="http://www.w3.org/2000/svg">
<path d="M5.94043 6.68555C5.76725 6.68555 5.6123 6.61947 5.47559 6.4873L0.18457 1.07324C0.125326 1.014 0.0797526 0.947917 0.0478516 0.875C0.0159505 0.797526 0 0.715495 0 0.628906C0 0.510417 0.0273438 0.40332 0.0820312 0.307617C0.136719 0.211914 0.209635 0.136719 0.300781 0.0820312C0.396484 0.0273438 0.503581 0 0.62207 0C0.795247 0 0.943359 0.0592448 1.06641 0.177734L6.30273 5.53027H5.57129L10.8076 0.177734C10.9352 0.0592448 11.0833 0 11.252 0C11.3704 0 11.4753 0.0273438 11.5664 0.0820312C11.6621 0.136719 11.7373 0.211914 11.792 0.307617C11.8467 0.40332 11.874 0.510417 11.874 0.628906C11.874 0.797526 11.8125 0.943359 11.6895 1.06641L6.39844 6.4873C6.33919 6.55111 6.26855 6.60124 6.18652 6.6377C6.10905 6.6696 6.02702 6.68555 5.94043 6.68555Z" fill="#B9B9B9"/>
</svg>
