<svg width="25" height="25" viewBox="0 0 25 25" fill="none" xmlns="http://www.w3.org/2000/svg">
<path d="M12.5 18.0859C12.2917 18.0859 12.0963 18.0536 11.9141 17.9891C11.7318 17.9245 11.5625 17.8135 11.4062 17.6562L5.78124 12.0313C5.46875 11.7188 5.31875 11.3542 5.33125 10.9375C5.34375 10.5208 5.49375 10.1563 5.78124 9.84375C6.09374 9.53125 6.4651 9.36875 6.89531 9.35625C7.32551 9.34375 7.69635 9.49323 8.00781 9.80469L10.9375 12.7344V1.5625C10.9375 1.1198 11.0875 0.748964 11.3875 0.450005C11.6875 0.151047 12.0583 0.00104705 12.5 5.38792e-06C12.9417 -0.00103628 13.313 0.148964 13.6141 0.450005C13.9151 0.751047 14.0646 1.12188 14.0625 1.5625V12.7344L16.9922 9.80469C17.3047 9.49219 17.676 9.34219 18.1062 9.35469C18.5364 9.36719 18.9073 9.53021 19.2187 9.84375C19.5052 10.1563 19.6552 10.5208 19.6687 10.9375C19.6823 11.3542 19.5323 11.7188 19.2187 12.0313L13.5937 17.6562C13.4375 17.8125 13.2682 17.9234 13.0859 17.9891C12.9036 18.0547 12.7083 18.087 12.5 18.0859ZM3.125 25C2.26562 25 1.53021 24.6943 0.918749 24.0828C0.307291 23.4714 0.00104167 22.7354 0 21.875V18.75C0 18.3073 0.15 17.9365 0.45 17.6375C0.75 17.3385 1.12083 17.1885 1.5625 17.1875C2.00416 17.1865 2.37552 17.3365 2.67656 17.6375C2.9776 17.9385 3.12708 18.3094 3.125 18.75V21.875H21.875V18.75C21.875 18.3073 22.025 17.9365 22.325 17.6375C22.625 17.3385 22.9958 17.1885 23.4375 17.1875C23.8791 17.1865 24.2505 17.3365 24.5515 17.6375C24.8526 17.9385 25.0021 18.3094 25 18.75V21.875C25 22.7344 24.6943 23.4703 24.0828 24.0828C23.4713 24.6953 22.7354 25.001 21.875 25H3.125Z" fill="#0C8948"/>
</svg>
