<svg width="25" height="25" viewBox="0 0 25 25" fill="none" xmlns="http://www.w3.org/2000/svg">
<path d="M23.9889 0.0252811C24.5647 0.143259 25 0.654495 25 1.26405V12.5L24.9719 12.7556C24.9139 13.0414 24.7589 13.2983 24.5332 13.4828C24.3074 13.6673 24.0248 13.7681 23.7333 13.7681C23.4417 13.7681 23.1592 13.6673 22.9334 13.4828C22.7077 13.2983 22.5527 13.0414 22.4947 12.7556L22.4694 12.5028V4.3118L4.31693 22.4719L12.4986 22.4747L12.7542 22.5C13.0589 22.5653 13.3287 22.7409 13.5118 22.993C13.695 23.2451 13.7785 23.556 13.7465 23.8659C13.7145 24.1759 13.5691 24.4631 13.3382 24.6724C13.1074 24.8817 12.8074 24.9984 12.4958 25H1.2639C0.928695 25 0.607217 24.8668 0.370189 24.6298C0.133161 24.3927 0 24.0712 0 23.736V12.5L0.0280867 12.2472C0.0861036 11.9614 0.241113 11.7045 0.466849 11.52C0.692585 11.3355 0.975166 11.2347 1.26671 11.2347C1.55826 11.2347 1.84084 11.3355 2.06657 11.52C2.29231 11.7045 2.44732 11.9614 2.50534 12.2472L2.52781 12.5V20.6854L20.6831 2.52809H12.4986C12.1634 2.52809 11.8419 2.39491 11.6049 2.15786C11.3679 1.92081 11.2347 1.59929 11.2347 1.26405C11.2347 0.9288 11.3679 0.607285 11.6049 0.370231C11.8419 0.133176 12.1634 0 12.4986 0H23.7333L23.9889 0.0252811Z" fill="#0C8948"/>
</svg>
